#tb 0: 1/1000
#media_type 0: video
#codec_id 0: msmpeg4v3
#dimensions 0: 640x480
#sar 0: 0/1
0,          0,          0,      122,    23374, 0x8725b3b8
0,        122,        122,      122,    13732, 0x3ac8531a, F=0x0
0,        245,        245,      122,      615, 0xd31641b4, F=0x0
0,        367,        367,      122,     6361, 0xf263af54, F=0x0
0,        490,        490,      122,      320, 0xd6f2d6b8, F=0x0
0,        612,        612,      122,     3750, 0xfcf1d501, F=0x0
0,        735,        735,      122,     2541, 0xd9fc04f9, F=0x0
0,        857,        857,      122,      205, 0x4d38a947, F=0x0
0,        980,        980,      122,     2166, 0x2f1e7d74, F=0x0
0,       1102,       1102,      122,     1667, 0x0cd84b61, F=0x0
0,       1224,       1224,      122,    13645, 0x543bd032, F=0x0
0,       1347,       1347,      122,     5953, 0xc3037c73, F=0x0
0,       1469,       1469,      122,    36169, 0xca9f716d
0,       1592,       1592,      122,     3030, 0x9aba5683, F=0x0
